<svg width="450" height="297" viewBox="0 0 450 297" fill="none" xmlns="http://www.w3.org/2000/svg"><path d="M140.85 221.991c-2.166.056-4.472.084-6.244-1.322a3.63 3.63 0 01-1.434-2.869c.028-1.687 1.294-2.503 2.559-3.122 5.485-2.615 11.813-2.587 17.888-2.503 52.087.581 104.175.084 156.262-1.491 4.5-.14 9.056-.253 13.331 1.097 2.954.957 5.597 2.56 8.241 4.163l12.881 7.79c2.982 1.575-5.484 2.785-8.606 2.897l-29.587.985c-1.716.056-3.657.225-4.725 1.575-1.069 1.35 2.559 2.025 1.715 3.431-.844 1.406-2.953 1.969-4.781 2.081a985.136 985.136 0 01-154.856-4.444" fill="#08192B" opacity=".6"/><path d="M83.194 203.738l44.718-25.313 1.969-1.125s1.969-.563 2.813 1.125c.843 1.687.843 3.094 0 3.656-.844.563-45.844 26.438-45.844 26.438s-7.031 1.687-7.313 1.125c-.28-.563 3.657-5.906 3.657-5.906z" fill="#08192B" opacity=".56"/><path d="M138.431 191.812a7.625 7.625 0 007.594 7.594h183.122a7.592 7.592 0 007.566-7.594l-.057-18.984-198.225 2.391v16.593z" fill="#F8FAFB"/><path d="M329.063 60.469s-24.469-.478-41.429-.31c-28.828.254-141.665.31-141.665.31-4.191 0-7.763 1.828-7.594 7.593 1.041 37.8.084 71.635.056 107.157 0 .168 71.185-.563 106.791.028 30.544.478 60.947-.028 91.434-.028 0 0-.45-80.016 0-107.156a7.566 7.566 0 00-7.593-7.594z" fill="#374957"/><path d="M327.656 72H150.469v92.812h177.187V72z" fill="#5F7D95"/><path opacity=".37" d="M166.416 128.841a6.014 6.014 0 006.018 5.99h79.763a6.018 6.018 0 005.991-5.99V60.469h-91.772v68.372zm140.765-50.372h-37.772a5.99 5.99 0 00-5.99 5.99v38.765a5.99 5.99 0 005.99 5.991h37.772a5.99 5.99 0 005.991-5.991V84.459a5.99 5.99 0 00-5.991-5.99z" fill="#374957"/><path opacity=".43" d="M237.6 164.812s82.941-69.693 90.056-87.975v87.975H237.6z" fill="#374957"/><path d="M249.834 39.038h-79.762a5.99 5.99 0 00-5.991 5.99v79.768a5.99 5.99 0 005.991 5.991h79.762a5.99 5.99 0 005.991-5.991V45.028a5.99 5.99 0 00-5.991-5.99z" fill="#E2FFE2"/><path opacity=".37" d="M336.656 140.034h-76.894a6.02 6.02 0 00-5.99 5.991v15.862a6.016 6.016 0 005.99 5.991h76.894v-27.844z" fill="#374957"/><path d="M309.713 76.866h-39.319a4.247 4.247 0 00-4.247 4.246v41.007a4.247 4.247 0 004.247 4.247h39.319a4.247 4.247 0 004.246-4.247V81.112a4.246 4.246 0 00-4.246-4.246z" fill="#fff"/><path d="M347.344 143.719h-86.625a3.093 3.093 0 00-3.094 3.093v18.844a3.094 3.094 0 003.094 3.094h86.625a3.094 3.094 0 003.094-3.094v-18.844a3.094 3.094 0 00-3.094-3.093z" fill="#F8FAFB"/><path d="M266.063 228.375h-57.375a1.46 1.46 0 01-1.447-1.209 1.469 1.469 0 01.04-.675s3.403-9.479 4.36-12.741c.956-3.263 3.515-14.344 3.515-14.344h44.719l7.819 26.831a1.688 1.688 0 01-1.631 2.138z" fill="#E3E9ED"/><path d="M259.875 199.688h-45l-4.922 9.503h53.466l-3.544-9.503z" fill="#CFD9E0"/><path d="M82.125 202.219l44.719-25.313 1.969-1.125s1.968-.562 2.812 1.125c.844 1.688.844 3.094 0 3.657-.844.562-45.844 26.437-45.844 26.437s-7.031 1.688-7.312 1.125c-.281-.562 3.656-5.906 3.656-5.906z" fill="#5F5FF6"/><path d="M266.906 158.484v-4.5a.422.422 0 00-.844 0v4.5a.422.422 0 00.844 0z" fill="#BAC8D3"/><path d="M267.75 153.562h-.844v5.344h.844v-5.344z" fill="#B9C7D2"/><path d="M268.566 153.562h-.844v5.344h.844v-5.344z" fill="#B8C6D2"/><path d="M269.409 153.562h-.843v5.344h.843v-5.344z" fill="#B7C6D1"/><path d="M270.253 153.562h-.844v5.344h.844v-5.344z" fill="#B6C5D0"/><path d="M271.069 153.562h-.844v5.344h.844v-5.344z" fill="#B5C4D0"/><path d="M271.912 153.562h-.843v5.344h.843v-5.344z" fill="#B4C3CF"/><path d="M272.756 153.562h-.844v5.344h.844v-5.344z" fill="#B3C2CE"/><path d="M273.572 153.562h-.844v5.344h.844v-5.344z" fill="#B2C1CD"/><path d="M274.416 153.562h-.844v5.344h.844v-5.344z" fill="#B1C1CD"/><path d="M275.259 153.562h-.843v5.344h.843v-5.344z" fill="#B0C0CC"/><path d="M276.075 153.562h-.844v5.344h.844v-5.344z" fill="#AFBFCB"/><path d="M276.919 153.562h-.844v5.344h.844v-5.344z" fill="#AEBECB"/><path d="M277.762 153.562h-.843v5.344h.843v-5.344z" fill="#ADBDCA"/><path d="M278.578 153.562h-.844v5.344h.844v-5.344z" fill="#ACBCC9"/><path d="M279.422 153.562h-.844v5.344h.844v-5.344z" fill="#ABBCC9"/><path d="M280.266 153.562h-.844v5.344h.844v-5.344z" fill="#AABBC8"/><path d="M281.081 153.562h-.844v5.344h.844v-5.344z" fill="#A9BAC7"/><path d="M281.925 153.562h-.844v5.344h.844v-5.344z" fill="#A8B9C7"/><path d="M282.769 153.562h-.844v5.344h.844v-5.344z" fill="#A7B8C6"/><path d="M283.584 153.562h-.843v5.344h.843v-5.344z" fill="#A6B7C5"/><path d="M284.428 153.562h-.844v5.344h.844v-5.344z" fill="#A5B7C5"/><path d="M285.272 153.562h-.844v5.344h.844v-5.344z" fill="#A4B6C4"/><path d="M286.088 153.562h-.844v5.344h.844v-5.344z" fill="#A3B5C3"/><path d="M286.931 153.562h-.843v5.344h.843v-5.344z" fill="#A2B4C2"/><path d="M287.775 153.562h-.844v5.344h.844v-5.344z" fill="#A1B3C2"/><path d="M288.591 153.562h-.844v5.344h.844v-5.344z" fill="#A0B2C1"/><path d="M289.434 153.562h-.843v5.344h.843v-5.344z" fill="#9FB2C0"/><path d="M290.278 153.562h-.844v5.344h.844v-5.344z" fill="#9EB1C0"/><path d="M291.094 153.562h-.844v5.344h.844v-5.344z" fill="#9DB0BF"/><path d="M291.938 153.562h-.844v5.344h.844v-5.344z" fill="#9CAFBE"/><path d="M292.781 153.562h-.843v5.344h.843v-5.344z" fill="#9BAEBE"/><path d="M293.597 153.562h-.844v5.344h.844v-5.344z" fill="#9AADBD"/><path d="M294.441 153.562h-.844v5.344h.844v-5.344z" fill="#99ADBC"/><path d="M295.284 153.562h-.843v5.344h.843v-5.344z" fill="#98ACBC"/><path d="M296.1 153.562h-.844v5.344h.844v-5.344z" fill="#97ABBB"/><path d="M296.944 153.562h-.844v5.344h.844v-5.344z" fill="#96AABA"/><path d="M297.788 153.562h-.844v5.344h.844v-5.344z" fill="#95A9BA"/><path d="M298.603 153.562h-.844v5.344h.844v-5.344z" fill="#94A8B9"/><path d="M299.447 153.562h-.844v5.344h.844v-5.344z" fill="#93A8B8"/><path d="M300.291 153.562h-.844v5.344h.844v-5.344z" fill="#92A7B7"/><path d="M301.106 153.562h-.844v5.344h.844v-5.344z" fill="#91A6B7"/><path d="M301.95 153.562h-.844v5.344h.844v-5.344z" fill="#90A5B6"/><path d="M302.794 153.562h-.844v5.344h.844v-5.344z" fill="#8FA4B5"/><path d="M303.609 153.562h-.843v5.344h.843v-5.344z" fill="#8EA3B5"/><path d="M304.453 153.562h-.844v5.344h.844v-5.344z" fill="#8DA3B4"/><path d="M305.297 153.562h-.844v5.344h.844v-5.344z" fill="#8BA2B3"/><path d="M306.141 153.562h-.844v5.344h.844v-5.344z" fill="#8AA1B3"/><path d="M306.956 153.562h-.844v5.344h.844v-5.344z" fill="#89A0B2"/><path d="M307.8 153.562h-.844v5.344h.844v-5.344z" fill="#889FB1"/><path d="M308.644 153.562h-.844v5.344h.844v-5.344z" fill="#879EB1"/><path d="M309.459 153.562h-.843v5.344h.843v-5.344z" fill="#869EB0"/><path d="M310.303 153.562h-.844v5.344h.844v-5.344z" fill="#859DAF"/><path d="M311.147 153.562h-.844v5.344h.844v-5.344z" fill="#849CAE"/><path d="M311.962 153.562h-.843v5.344h.843v-5.344z" fill="#839BAE"/><path d="M312.806 153.562h-.844v5.344h.844v-5.344z" fill="#829AAD"/><path d="M313.65 153.562h-.844v5.344h.844v-5.344z" fill="#8199AC"/><path d="M314.466 153.562h-.844v5.344h.844v-5.344z" fill="#8099AC"/><path d="M315.309 153.562h-.843v5.344h.843v-5.344z" fill="#7F98AB"/><path d="M316.153 153.562h-.844v5.344h.844v-5.344z" fill="#7E97AA"/><path d="M316.969 153.562h-.844v5.344h.844v-5.344z" fill="#7D96AA"/><path d="M317.812 153.562h-.843v5.344h.843v-5.344z" fill="#7C95A9"/><path d="M318.656 153.562h-.844v5.344h.844v-5.344z" fill="#7B94A8"/><path d="M319.472 153.562h-.844v5.344h.844v-5.344z" fill="#7A94A8"/><path d="M320.316 153.562h-.844v5.344h.844v-5.344z" fill="#7993A7"/><path d="M321.159 153.562h-.843v5.344h.843v-5.344z" fill="#7892A6"/><path d="M321.975 153.562h-.844v5.344h.844v-5.344z" fill="#7791A6"/><path d="M322.819 153.562h-.844v5.344h.844v-5.344z" fill="#7690A5"/><path d="M323.663 153.562h-.844v5.344h.844v-5.344z" fill="#758FA4"/><path d="M324.478 153.562h-.844v5.344h.844v-5.344z" fill="#748FA3"/><path d="M325.322 153.562h-.844v5.344h.844v-5.344z" fill="#738EA3"/><path d="M326.166 153.562h-.844v5.344h.844v-5.344z" fill="#728DA2"/><path d="M326.981 153.562h-.844v5.344h.844v-5.344z" fill="#718CA1"/><path d="M327.825 153.562h-.844v5.344h.844v-5.344z" fill="#708BA1"/><path d="M328.669 153.562h-.844v5.344h.844v-5.344z" fill="#6F8AA0"/><path d="M329.484 153.562h-.843v5.344h.843v-5.344z" fill="#6E8A9F"/><path d="M330.328 153.562h-.844v5.344h.844v-5.344z" fill="#6D899F"/><path d="M331.172 153.562h-.844v5.344h.844v-5.344z" fill="#6C889E"/><path d="M331.988 153.562h-.844v5.344h.844v-5.344z" fill="#6B879D"/><path d="M332.831 153.562h-.843v5.344h.843v-5.344z" fill="#6A869D"/><path d="M333.675 153.562h-.844v5.344h.844v-5.344z" fill="#69859C"/><path d="M334.491 153.562h-.844v5.344h.844v-5.344z" fill="#68859B"/><path d="M335.334 153.562h-.843v5.344h.843v-5.344z" fill="#67849B"/><path d="M336.178 153.562h-.844v5.344h.844v-5.344z" fill="#66839A"/><path d="M336.994 153.562h-.844v5.344h.844v-5.344z" fill="#658299"/><path d="M337.837 153.562h-.843v5.344h.843v-5.344z" fill="#648198"/><path d="M338.681 153.562h-.844v5.344h.844v-5.344z" fill="#638098"/><path d="M339.497 153.562h-.844v5.344h.844v-5.344z" fill="#628097"/><path d="M340.341 153.562h-.844v5.344h.844v-5.344z" fill="#617F96"/><path d="M341.184 153.562h-.843v5.344h.843v-5.344z" fill="#607E96"/><path d="M342 153.562h-.844v5.344H342v-5.344z" fill="#5F7D95"/><path opacity=".09" d="M273.459 160.931a4.753 4.753 0 100-9.506 4.753 4.753 0 000 9.506z" fill="#5F7D95"/><path d="M118.406 237.769c4.95-2.503 10.069-4.528 15.272-6.385l7.453-2.559c2.447-.844 5.035-1.547 7.285-2.897.59-.337.056-1.266-.563-.928-2.362 1.378-5.147 2.081-7.734 2.953l-7.65 2.672c-4.978 1.828-9.9 3.769-14.569 6.272-.562.309-.056 1.181.506.872z" fill="#BAC8D3"/><path d="M140.822 225.394c9.731 6.778 19.772 13.19 29.756 19.575.591.365 1.125-.563.563-.957-9.816-6.637-19.688-13.303-29.757-19.574-.618-.366-1.125.562-.562.956z" fill="#BAC8D3"/><path d="M82.097 202.95c2.194-.056 2.925 1.884 3.375 3.712.14.535.9.282.816-.253-.282-2.053-1.829-4.725-4.304-4.162a.364.364 0 00-.222.396.366.366 0 00.335.307zm-2.841 4.556c.056.028.113.056.113.085l.056.056c.028.056-.028-.028 0 .028s.028.084 0 .056c-.028-.028 0-.028.028.028v.085a.394.394 0 00.731 0 .93.93 0 00-.73-1.041.391.391 0 00-.45.253.365.365 0 00.253.45z" fill="#3636CC"/><path d="M128.531 177.216a3.453 3.453 0 011.603 3.122" fill="#B3B3FC"/><path d="M128.166 177.806c.871.591 1.181 1.519 1.181 2.532 0 1.012 1.49.984 1.575 0 .112-1.519-.788-2.982-2.025-3.741-.788-.506-1.463.703-.731 1.209z" fill="#3636CC"/><path d="M94.866 239.484v5.372a1.972 1.972 0 00.9 1.632l47.137 30.009a14.265 14.265 0 0012.066 1.547l45.815-14.71.225-.084c.394-.056 1.744-.394 1.519-1.294-.225-.9-.534-1.35-.534-1.884 0-.534.253-2.391 0-2.925a3.6 3.6 0 01-.282-2.419c.282-.787.282-1.069 0-1.856 0-.056-.028-.113-.028-.169a1.994 1.994 0 00-2.278-1.547c-10.49 1.997-53.015 10.041-53.24 10.519-.225.478-37.716-18.506-48.46-23.934a1.966 1.966 0 00-2.84 1.743z" fill="#08192B" opacity=".5"/><path d="M97.284 232.2l.253 10.294 53.044 33.778 51.722-16.65s1.828-.253 1.575-1.294c-.253-1.041-.534-1.322-.534-1.856 0-.535.281-2.391 0-2.897-.282-.506-.507-1.603-.253-2.391a2.311 2.311 0 000-1.828c-.254-.815 0-2.109 0-2.109s-54.619 10.265-54.872 10.8c-.253.534-50.935-25.847-50.935-25.847z" fill="#CFD9E0"/><path d="M203.344 248.034l-52.847 17.1c-.184.066-.381.09-.575.07a1.307 1.307 0 01-.55-.182L97.284 232.2c-.984-.619-.028-.703 1.07-1.069l47.193-14.85a1.329 1.329 0 011.069.113l54.309 29.953c1.013.562 3.544 1.322 2.419 1.687z" fill="#fff"/><path d="M99.59 232.509c-1.04-.675-2.756-.365-3.824.057a6.297 6.297 0 00-3.375 3.318 6.163 6.163 0 000 4.838c.787 1.8 2.362 2.194 4.19 2.334 1.013.056.985-1.49 0-1.575-1.547-.14-2.615-.506-2.897-2.165a4.67 4.67 0 01.704-3.404c.843-1.321 3.037-2.643 4.696-2.165.76.225 1.153-.816.507-1.238z" fill="#5F7D95"/><path d="M103.219 234.984c-2.841-.309-5.963.366-7.172 3.291-.956 2.363-.169 6.441 3.15 5.822.844-.169.647-1.575-.197-1.519-2.728.169-1.688-3.881-.506-5.006 1.181-1.125 3.122-1.209 4.725-1.097.956.084.928-1.378 0-1.491z" fill="#5F7D95"/><path d="M107.1 237.15c-2.728-.394-6.413 1.181-7.537 3.769-.563 1.265-.366 2.869.421 4.106.788 1.238 2.841 1.716 4.388 1.35 1.04-.253.619-1.856-.45-1.603-1.069.253-2.419-.084-2.756-1.378-.338-1.294-.169-2.11.534-2.869 1.097-1.209 3.572-2.081 5.203-1.941.816.057 1.013-1.321.197-1.434z" fill="#5F7D95"/><path d="M110.559 239.541c-2.531-1.744-6.722.647-7.284 3.431-.309 1.406-.366 2.84.787 3.853 1.154 1.012 2.56 1.547 4.022 1.181.872-.225.732-1.715-.225-1.631a3.539 3.539 0 01-2.418-.647c-.844-.562-.732-1.659-.535-2.531.45-1.8 3.206-3.206 4.922-2.391a.731.731 0 00.731-1.265z" fill="#5F7D95"/><path d="M113.653 241.087c-2.644-1.49-5.259.929-6.272 3.263a6.723 6.723 0 00-.14 4.331c.45 1.266 2.025 1.435 3.178 1.463 1.153.028 1.181-1.519.225-1.66-.956-.14-1.463-.056-1.772-.59-.309-.535-.141-2.307.169-2.953.815-1.8 2.053-2.785 4.05-2.504.759.113 1.35-.9.562-1.35z" fill="#5F7D95"/><path d="M118.238 243.394c-3.207-.591-6.385.225-7.51 3.6-.45 1.294-.731 3.037 0 4.331.731 1.294 2.503 1.969 3.881 1.913.872-.057 1.182-1.463.197-1.632-.984-.168-2.559-.253-2.728-1.884-.06-.904.094-1.81.45-2.644.928-2.278 3.375-2.39 5.513-2.222.843.085 1.04-1.293.197-1.462z" fill="#5F7D95"/><path d="M121.641 245.981c-2.954-.872-6.947.535-7.763 3.713-.394 1.462-.225 3.431.703 4.669.928 1.237 2.475 1.743 3.91 1.012.815-.422.534-1.772-.45-1.603-2.729.478-3.46-2.447-2.166-4.528 1.294-2.081 3.516-1.941 5.372-1.885.759.029 1.237-1.153.394-1.378z" fill="#5F7D95"/><path d="M124.987 248.484c-1.546-.225-3.346-.337-4.837.338a5.732 5.732 0 00-3.038 4.078 4.444 4.444 0 001.688 4.331c1.097.788 3.487 1.828 4.556.703.563-.59.028-1.659-.787-1.406-.816.253-2.757-.619-3.263-1.378-.506-.759-.534-2.194.028-3.178 1.125-2.025 3.375-2.138 5.485-2.081.787.028.984-1.294.168-1.407z" fill="#5F7D95"/><path d="M129.347 250.678c-3.628-1.884-7.453.028-8.86 3.741-.59 1.575-.478 3.403.647 4.725a3.807 3.807 0 002.043 1.278 3.807 3.807 0 002.401-.209c.984-.479.253-1.857-.675-1.66-3.037.619-3.291-2.84-2.25-4.584 1.406-2.335 3.684-2.897 6.103-1.913.816.338 1.35-.984.591-1.378z" fill="#5F7D95"/><path d="M133.2 252.141c-3.178-1.041-6.553.084-8.241 3.009-.815 1.434-1.35 3.403-.815 5.034.534 1.632 2.812 2.897 4.556 2.335 1.125-.394.675-2.081-.506-1.828-1.66.365-2.588-1.041-2.419-2.532a6.082 6.082 0 011.575-3.375c1.378-1.518 3.544-1.828 5.456-1.293.9.253 1.238-1.069.394-1.35z" fill="#5F7D95"/><path d="M135.759 255.6l.057-.056a.819.819 0 00.14-.928c-.815-1.491-3.797-.9-5.006-.366-1.716.731-2.953 2.222-3.628 3.966-.675 1.743-.647 3.853.59 5.428 1.238 1.575 3.263 2.278 5.035 1.575.9-.338.9-1.857-.225-1.8-1.125.056-2.391.056-3.263-.985-.872-1.04-.759-2.362-.365-3.543a5.455 5.455 0 012.025-2.672c.928-.619 2.728-1.182 3.768-.563l-.365-.647v.085a.727.727 0 00.454.655.733.733 0 00.783-.149z" fill="#5F7D95"/><path d="M138.994 257.766c-1.182-3.544-6.469-1.716-8.156.337-1.182 1.434-1.547 3.178-.732 4.866.816 1.687 1.941 3.403 3.881 3.206.957-.112 1.379-1.631.254-1.856-1.125-.225-1.66-.872-2.194-1.856-.535-.985-.534-2.194.337-3.235.872-1.041 4.332-2.784 5.316-.9.366.703 1.547.225 1.294-.562z" fill="#5F7D95"/><path d="M141.694 259.397c-.647-1.491-3.066-1.322-4.388-1.125-1.322.197-3.262 1.237-4.078 2.784-.816 1.547-.759 3.432.056 4.753.816 1.322 2.925 1.941 4.585 1.66 1.097-.169.731-1.772-.253-1.856-.985-.085-2.222.028-2.7-1.013a3.377 3.377 0 01.168-2.897c.535-.815 1.407-1.266 2.307-1.519.9-.253 2.531-.59 3.178.113.647.703 1.434-.197 1.125-.9z" fill="#5F7D95"/><path d="M144.253 259.481c-3.065-.619-6.244 1.378-7.312 4.219-.591 1.547-.9 3.488.225 4.866 1.125 1.378 3.178 1.715 4.922 1.35 1.04-.225.787-1.828-.225-1.828-1.013 0-3.319.084-3.46-1.688-.084-1.041.366-2.25.9-3.094.928-1.49 3.038-2.39 4.753-2.334.844 0 1.041-1.322.197-1.491z" fill="#5F7D95"/><path d="M146.391 261.703c-2.588-.619-5.091 1.856-5.991 4.05-.647 1.547-.788 3.431.056 4.978.844 1.547 2.11 2.419 3.6 1.744.731-.338.563-1.659-.253-1.772-4.022-.647-.872-7.594 2.391-7.566.815 0 1.012-1.237.197-1.434z" fill="#5F7D95"/><path d="M149.653 263.475c-.478-.591-1.209-.366-1.687-.253-1.125.253-2.222 1.012-3.038 1.8a6.973 6.973 0 00-1.884 6.159 5.48 5.48 0 002.7 3.853c1.04.563 2.644.928 3.544-.056a.988.988 0 00.073-1.281.984.984 0 00-1.255-.266c-1.209.563-2.784-1.434-3.009-2.503a5.13 5.13 0 01.956-4.303 6.751 6.751 0 011.631-1.322c.394-.253.816-.394 1.238-.619.844-.393.084.113-.169-.056.731.506 1.35-.562.9-1.153z" fill="#5F7D95"/><path d="M140.906 253.069c5.485-1.941 10.913-4.022 16.341-6.16 2.475-.984 4.865-2.25 7.34-3.318a66.202 66.202 0 018.607-2.954c.675-.168.393-1.181-.282-1.012a57.996 57.996 0 00-8.071 2.728c-2.672 1.097-5.204 2.447-7.875 3.516-5.429 2.165-10.857 4.275-16.341 6.187-.619.225-.366 1.21.281 1.013z" fill="#BAC8D3"/><path d="M117.225 234.253a55.202 55.202 0 006.497 5.513c2.559 1.828 5.344 3.262 7.959 5.006 2.616 1.744 5.119 3.684 7.763 5.4a81.684 81.684 0 008.212 4.697c.732.365 1.407-.76.647-1.153-2.644-1.407-5.259-2.841-7.762-4.472-2.503-1.631-5.147-3.628-7.735-5.4-2.587-1.772-5.147-3.038-7.65-4.697a57.748 57.748 0 01-7.172-5.653c-.506-.478-1.237.281-.759.759z" fill="#BAC8D3"/><path d="M133.256 232.341c-2.615.871-3.206 3.853-1.49 5.934 1.068 1.266 2.615 1.828 4.218 1.997 1.604.169 3.544.281 5.091-.338 3.122-1.209 2.503-4.837.253-6.693-1.181-.985-3.009-1.322-4.5-1.519a7.254 7.254 0 00-4.556.619c-.591.309-.169 1.35.45 1.096 1.941-.815 3.909-.59 5.878-.056 1.322.394 2.166.816 2.869 2.053.703 1.238.703 2.672-.9 3.291-1.603.619-4.95.562-6.666-.338-2.137-1.125-2.756-4.021-.253-5.118.534-.225.141-1.097-.394-.928zm31.753 9.675c-2.587-2.222-6.131-2.925-9.421-3.319-3.291-.394-7.172-.506-10.632.337-2.812.675-6.384 2.194-7.397 5.175-1.012 2.982 1.407 5.175 4.163 5.991.872.253 1.153-1.013.366-1.322-.788-.309-2.56-.9-3.179-2.081-.815-1.631.394-3.375 1.632-4.303 2.25-1.66 5.175-2.363 7.903-2.588a31.143 31.143 0 0115.947 2.897c.478.253 1.097-.394.618-.787z" fill="#869FB2"/><path d="M150.384 266.766c4.528-1.688 9.169-3.066 13.782-4.613 4.612-1.547 9.421-3.234 14.231-4.669 4.809-1.434 9.112-2.896 13.64-4.471 3.854-1.35 7.932-2.56 11.56-4.472.9-.45.112-1.688-.76-1.294-8.296 3.544-16.959 6.356-25.593 8.944-4.782 1.434-9.478 3.121-14.203 4.696-4.725 1.575-8.888 2.785-13.219 4.613-.703.309-.197 1.547.562 1.266zm.169 2.953c1.772-1.013 3.938-1.519 5.85-2.138a704.049 704.049 0 0110.21-3.093c5.878-1.716 11.84-3.291 17.634-5.316 6.412-2.25 12.769-4.753 19.153-7.088.872-.309.534-1.631-.366-1.378-5.934 1.575-11.615 4.163-17.381 6.272-2.756.985-5.54 1.856-8.325 2.7-6.862 2.025-13.697 3.994-20.503 6.188-2.278.731-4.922 1.35-7.003 2.559-.816.478-.084 1.772.731 1.294zm1.435 3.825c9.59-3.881 19.462-6.975 29.221-10.378 7.425-2.588 14.879-5.119 22.472-7.2.928-.253.535-1.688-.393-1.435-7.679 2.025-15.244 4.472-22.754 7.088-9.787 3.375-19.603 6.525-29.109 10.547-.787.337-.225 1.687.563 1.378zm.309 3.178c16.397-7.397 33.919-11.813 51.075-17.044.956-.309.562-1.828-.45-1.547-17.297 4.95-35.1 9.478-51.384 17.269-.9.45-.113 1.716.759 1.322z" fill="#A5B7C6"/><path d="M301.641 89.916a16.426 16.426 0 00-11.616-4.754h-.056v16.369h.056l11.616-11.615z" fill="#FCBD24"/><path d="M289.969 101.531H273.6v.057a16.425 16.425 0 004.753 11.615l11.616-11.615v-.057z" fill="#4949E7"/><path d="M289.969 118.041v-16.454l-11.616 11.616a16.39 16.39 0 0011.616 4.838z" fill="#1273EB"/><path d="M290.025 101.531h-.056v.057l.056-.057z" fill="#2D2DB0"/><path d="M273.6 101.531h16.369v-.056l-11.532-11.531a16.277 16.277 0 00-4.837 11.587z" fill="#FB5252"/><path d="M278.438 89.944l11.531 11.531V85.162a16.253 16.253 0 00-11.531 4.782z" fill="#F69110"/><path d="M301.641 89.916l-11.616 11.615h16.453a16.404 16.404 0 00-4.837-11.615z" fill="#8DF690"/><path d="M289.969 101.588v16.453h.056a16.352 16.352 0 0011.672-4.866l-11.672-11.644-.056.057z" fill="#2C8CF4"/><path d="M306.478 101.531h-16.453l11.672 11.672a16.417 16.417 0 004.809-11.615.089.089 0 01-.028-.057z" fill="#4AD295"/><path d="M186.919 64.969a3.964 3.964 0 002.84 1.125c3.122-.14 4.641-3.628 3.741-6.328-.9-2.7-4.387-3.516-6.384-1.52-1.322 1.323-2.194 5.541-.197 6.723z" fill="#8DF690"/><path d="M228.853 75.01c.225.112 1.125.14 1.378-.31.788-1.294.844-2.813.985-4.303.182-1.72.211-3.451.084-5.175a18.905 18.905 0 00-1.069-5.006c-.14-.366-1.969-4.163-2.362-3.572l-3.572 3.881c-.76.872-1.66 1.688-2.447 2.56h-2.334a.815.815 0 00-.394.084.678.678 0 00-.685.357.666.666 0 00-.074.261c-.141 1.744.056 3.516.056 5.26a.87.87 0 00.843.844 12.74 12.74 0 002.925-.141c1.997 1.969 4.219 3.91 6.666 5.26z" fill="#69E781"/><path d="M232.762 68.26c-.956.393-.534 1.968.422 1.546 3.094-1.293 2.475-6.187.225-8.043a.715.715 0 10-1.012 1.012c.675.816 1.209 1.603 1.265 2.7.057 1.097 0 2.39-.9 2.784z" fill="#4AD295"/><path d="M235.828 58.5c-.647-.534-1.744.14-1.237.956 1.209 1.913 2.643 3.15 2.643 5.597 0 2.447-.562 4.163-2.531 5.4-.984.619-.084 2.166.928 1.575 4.81-2.897 4.275-10.237.197-13.528z" fill="#4AD295"/><path d="M197.494 73.434c0-.084-.31-2.418-.338-2.475-.309-1.518-1.659-3.121-2.953-3.909-.056-.028-.731-.394-1.041-.253-2.165 1.069-4.05 1.181-6.328.31-.197-.085-.9-.254-1.181-.141-1.603.675-2.672 2.025-3.234 3.656-.338.984-.478 5.26.084 5.231 4.388-.028 9.253-.112 13.641-.225.956 0 1.237-.31 1.322-.675.084-.365.028-1.012.028-1.519z" fill="#8DF690"/><path opacity=".27" d="M195.272 111.769h.112v-.057l-.112.057z" fill="#69E781"/><path d="M205.369 98.1a.197.197 0 00-.169-.169 1.518 1.518 0 00-.703.028h-.309a1.889 1.889 0 01-1.575-.506c-.985-1.04.196-2.222.9-2.981a.664.664 0 01.225-.169 13.067 13.067 0 00-3.291-3.403.703.703 0 00-.394.366 2.589 2.589 0 01-1.237 1.265c-.213.03-.421.087-.619.169l-.422.056c-.366 0-1.294-.028-1.575-.337-.281-.31-.112-1.21-.112-1.632 0-.421 0-1.153-.563-1.237a17.383 17.383 0 00-5.4.028c-.422.056-.591.366-.563.788.029.421.057 1.125.029 1.293-.029.17-.563 1.238-.591 1.294l-.225.225-.084.056a.732.732 0 01-.591.085 4.698 4.698 0 01-2.222-1.575l-.112-.085h-.141a12.526 12.526 0 00-3.094 3.966c-.084.225.535.534.535.534.646.394 1.209.816.928 1.547-.422 1.238-1.35 1.575-2.363 1.49-.084 0-.197.029-.225.113a15.88 15.88 0 00-.112 1.632 12.181 12.181 0 00.562 3.684c.844-.309 2.053.028 2.475.788.422.759-.169 1.771-.928 2.418 1.069 1.575 2.7 3.094 3.825 3.628.135-.173.286-.333.45-.478.619-.759 1.491-1.181 2.503-.815 1.013.365.9 1.209.928 2.081 0 .422 0 .675.169.731a11.15 11.15 0 002.194.225c1.294 0 2.672 0 3.741-.59.309-.169-.141-.704-.169-.788-.703-1.35.225-2.7 1.744-2.419.843.169 1.518.703 2.165 1.238a12.586 12.586 0 002.813-3.038c-.45-.281-1.744-1.04-1.744-2.193 0-1.154.309-1.491 1.181-1.772a3.988 3.988 0 012.222.028c.178-.87.273-1.756.281-2.644a12.417 12.417 0 00-.337-2.925zm-12.01 7.397a4.103 4.103 0 01-3.773-2.554 4.101 4.101 0 01.908-4.466 4.103 4.103 0 014.471-.877 4.106 4.106 0 01-1.606 7.897z" fill="#69E781"/><path d="M236.728 95.4a7.892 7.892 0 00-.872-3.066 7.001 7.001 0 00-8.409-3.347c-2.897 1.013-4.444 3.994-4.556 6.947-.024.688.024 1.376.14 2.053.816 4.388 3.403 8.326 6.16 11.729.14.197.365.422.59.365a.732.732 0 00.31-.197c1.35-1.265 2.306-2.84 3.29-4.415 1.772-2.953 3.656-6.525 3.347-10.069zm-6.862 4.162a3.458 3.458 0 01-.675-6.852 3.456 3.456 0 013.551 1.471 3.46 3.46 0 01-2.876 5.382z" fill="#2BC48A"/><path d="M273.459 160.059a3.881 3.881 0 10.002-7.762 3.881 3.881 0 00-.002 7.762z" fill="#fff"/><path d="M237.6 191.953a4.641 4.641 0 100-9.282 4.641 4.641 0 000 9.282z" fill="#A5B7C6"/><path d="M113.428 186.666c.225-.029 14.963-7.341 14.963-7.341l-.76-1.744-15.131 6.806v2.279h.928z" fill="#4949E7"/><path d="M111.066 183.572s14.512-7.903 15.075-7.875c.562.028 3.375 1.715 1.771 2.728-1.603 1.012-14.625 6.834-14.625 7.369 0 .534-.084 1.518-.084 1.518s-1.687-.703-2.137-1.462c-.45-.759-.563-1.35 0-2.278z" fill="#8080F1"/><path d="M113.316 186.441c-.141-.535.787-1.238 1.153-1.463l.815-.422a26.033 26.033 0 012.56-1.069l4.162-1.462c2.335-.872 4.556-1.913 6.469-3.516.225-.225-.113-.562-.366-.365-2.84 2.418-6.44 3.431-9.9 4.697-1.181.421-5.99 1.771-5.287 3.712.015.052.05.096.097.123a.207.207 0 00.156.018.207.207 0 00.141-.253zm-17.606 8.747c1.49.618 2.643 2.025 2.503 3.712-.029.506.759.506.815 0 .169-1.997-1.237-3.713-3.037-4.388-.394-.14-.647.507-.282.676z" fill="#3636CC"/><path d="M188.634 57.15c-3.6 1.21-4.19 7.256-.225 8.325.591.14.788-.703.253-.9-.534-.197-1.546-.647-1.856-1.688a4.73 4.73 0 01-.225-1.771 3.659 3.659 0 012.25-3.263c.394-.197.253-.844-.197-.703zm-5.765 18.45c-.197-2.25-.45-4.528 1.265-6.3 1.041-1.097 1.969-1.322 3.432-1.153.859.098 1.727.098 2.587 0 .535-.056.563-.9 0-.844-1.294.113-2.559-.281-3.825-.197-1.265.085-2.222.9-2.953 1.716-1.744 1.94-1.716 4.472-1.209 6.862a.365.365 0 00.703-.084zm.478 21.572c.056.394-.366.9-.647 1.097a4.655 4.655 0 01-.731.393c-.282.141-.703.197-.928.422-.225.225-.45 1.547-.563 2.138-.112.591.731.816.872.253.141-.562.141-.591.225-.9.084-.309.084-.788.197-.9.112-.112.675-.253.59-.197.266-.139.52-.299.76-.478.675-.478 1.265-1.153.928-2.025-.197-.422-.816-.281-.703.197zm10.434-.366c-2.25-.056-5.006 1.744-5.175 4.107-.084 1.715 1.153 3.487 2.56 4.331 2.7 1.603 6.328-.085 6.975-3.122a3.179 3.179 0 00-.057-1.547 1.767 1.767 0 00-.759-1.04c-.253-.113-.928-.197-.9.252.021.14.069.273.141.394 1.856 3.263-2.869 5.878-5.372 3.797-.956-.787-1.856-2.278-1.547-3.572.158-.515.461-.974.872-1.322a6.581 6.581 0 013.262-1.518.393.393 0 000-.76zm-12.768 6.582a1.52 1.52 0 00.534 1.406c.647.506 2.616-.085 1.772 1.603-.281.534-.506.59-.281 1.237.225.647 1.237 1.857 1.94 2.532a.487.487 0 00.675-.704c-.647-.646-1.828-1.603-1.434-2.559.197-.45.562-.647.534-1.266a1.548 1.548 0 00-.647-1.181c-.506-.365-2.39-.168-2.334-1.068.056-.9-.675-.45-.759 0zm4.725-11.504c.225 1.041 1.181 1.997 2.278 2.053 1.096.057 1.856-.59 1.856-1.575-.028-.45-.731-.59-.844-.112-.112.478-.703.956-1.35.703-.647-.253-.956-.787-1.237-1.378a.392.392 0 00-.476-.126.395.395 0 00-.227.435zm10.125.282c.309 1.18 1.546 1.406 2.587 1.153 1.041-.253 2.194-.985 2.616-2.138.196-.534-.647-.76-.844-.225-.394.956-3.009 2.56-3.6 1.013-.169-.45-.872-.281-.759.197z" fill="#2BC48A"/><path d="M221.344 63.844c.211 1.32.324 2.656.337 3.994 0 .506.731.478.788 0 .168-1.35-.197-2.785-.422-4.107-.085-.394-.76-.31-.703.113z" fill="#4AD295"/><path d="M228.684 100.237c1.744.338 3.46.366 4.669-1.124 1.21-1.491 1.097-3.291.225-4.782-1.744-3.01-6.44-3.46-7.79.14-.169.507.618.845.843.367 1.322-2.644 4.669-2.616 6.16-.029.618 1.097.703 2.447-.028 3.516-.732 1.069-2.504 1.322-3.994 1.125-.422-.028-.535.703-.085.787z" fill="#69E781"/></svg>